<svg width="136" height="68" viewBox="0 0 136 68" fill="none" xmlns="http://www.w3.org/2000/svg">
<g clip-path="url(#clip0_1826_19)">
<path d="M74.8885 51.6692C73.5464 51.6692 72.2043 52.1154 72.2043 52.6508C72.2043 53.0078 72.5622 53.454 73.0096 53.454C73.278 53.454 73.8148 53.097 73.8148 53.097C73.8148 59.9684 67.1938 65.5012 59.0517 65.5012C50.9096 65.5012 44.2885 59.9684 44.2885 53.097C44.2885 53.097 44.8254 53.454 45.0938 53.454C45.5411 53.454 45.899 53.0078 45.899 52.6508C45.899 52.1154 44.5569 51.6692 43.2148 51.6692C41.0675 51.6692 39.9043 52.8293 39.9043 53.3647C39.9043 53.6324 40.1727 53.9894 40.4411 53.9894C40.5306 53.9894 40.978 53.5432 41.2464 53.454C41.4253 61.2177 49.299 67.4645 58.9622 67.4645C68.6254 67.4645 76.499 61.2177 76.678 53.454C77.0359 53.6324 77.3938 53.9894 77.4832 53.9894C77.7517 53.9894 78.0201 53.6324 78.0201 53.3647C78.1096 52.8293 76.9464 51.6692 74.8885 51.6692Z" fill="white"/>
<path d="M53.5031 44.5305C54.9347 44.5305 55.7399 46.583 55.7399 48.3678C55.7399 48.814 55.561 49.2602 55.2031 49.2602C54.8452 49.2602 54.5768 48.9032 53.682 48.9032C52.7873 48.9032 52.5189 49.4387 51.8925 49.4387C51.2662 49.4387 51.1768 48.457 51.1768 47.7431C51.1768 46.3153 51.8925 44.5305 53.5031 44.5305Z" fill="white"/>
<path d="M64.5086 44.5305C63.077 44.5305 62.2717 46.583 62.2717 48.3678C62.2717 48.814 62.4507 49.2602 62.8086 49.2602C63.1665 49.2602 63.4349 48.9032 64.3296 48.9032C65.2244 48.9032 65.4928 49.4387 66.1191 49.4387C66.7454 49.4387 66.8349 48.457 66.8349 47.7431C66.8349 46.3153 66.1191 44.5305 64.5086 44.5305Z" fill="white"/>
<path d="M49.0305 0.803361C48.9411 0.8926 48.9411 0.981839 48.9411 1.16032V5.80074C48.9411 5.80074 46.3463 1.24956 46.2569 0.981839C46.1674 0.803361 46.0779 0.714122 45.899 0.624883C45.8095 0.535644 45.6305 0.535645 45.3621 0.535645H44.5569C44.3779 0.535645 44.199 0.624883 44.1095 0.714122C44.02 0.803361 44.02 0.8926 44.02 1.07108V7.67475C44.02 7.85323 44.02 7.94247 44.1095 8.03171C44.199 8.12095 44.2884 8.21019 44.5569 8.21019H45.0042C45.1832 8.21019 45.3621 8.12095 45.4516 8.03171C45.5411 7.94247 45.5411 7.85323 45.5411 7.67475V3.03433C45.5411 3.03433 48.2253 7.76399 48.3148 7.94247C48.4937 8.21019 48.6727 8.38866 49.12 8.38866H49.9253C50.1042 8.38866 50.2832 8.29942 50.3727 8.21019C50.4621 8.12095 50.4621 8.03171 50.4621 7.85323V1.78499H61.2884C61.3779 1.78499 61.4674 1.78499 61.5569 1.69575C61.6463 1.60651 61.6463 1.51727 61.6463 1.42803V0.981839C61.6463 0.8926 61.6463 0.803361 61.5569 0.714122C61.4674 0.624883 61.3779 0.624883 61.2884 0.624883H49.3884C49.2095 0.624883 49.12 0.714122 49.0305 0.803361ZM53.7726 2.58814C51.9832 2.58814 50.999 4.01596 50.999 5.44378C50.999 7.05008 52.0726 8.38866 53.7726 8.38866C54.6674 8.38866 55.4726 8.03171 56.0095 7.49627C56.1884 7.22856 56.3674 6.8716 56.3674 6.69313C56.3674 6.60389 56.3674 6.60389 56.2779 6.51465C56.2779 6.42541 56.1884 6.42541 56.099 6.42541H55.2937C55.1148 6.42541 55.0253 6.51465 54.9358 6.60389C54.6674 6.96084 54.3095 7.13932 53.8621 7.13932C53.0569 7.13932 52.6095 6.51465 52.52 5.88998H56.099C56.2779 5.88998 56.3674 5.88998 56.4569 5.80074C56.5463 5.7115 56.5463 5.62226 56.5463 5.35454C56.5463 4.64063 56.3674 4.01596 55.92 3.48053C55.3832 2.94509 54.6674 2.58814 53.7726 2.58814ZM59.32 2.58814C57.8884 2.58814 56.9937 3.30205 56.9937 4.37292C56.9937 4.72987 57.1726 5.08683 57.3516 5.2653C57.62 5.53302 57.9779 5.7115 58.5148 5.88998L59.6779 6.15769C60.0358 6.24693 60.3042 6.33617 60.3042 6.60389C60.3042 7.05008 59.8569 7.22856 59.32 7.22856C59.0516 7.22856 58.7832 7.13932 58.6042 7.05008C58.4253 6.96084 58.3358 6.8716 58.2463 6.69313C58.1569 6.69313 58.1569 6.60389 58.0674 6.51465C57.9779 6.51465 57.8884 6.42541 57.799 6.42541H57.1727C56.9937 6.42541 56.9937 6.42541 56.9042 6.51465C56.8148 6.60389 56.8148 6.69313 56.8148 6.69313C56.8148 6.8716 56.9042 7.13932 57.0832 7.40704C57.4411 7.94247 58.3358 8.38866 59.32 8.38866C60.3937 8.38866 61.8253 7.94247 61.8253 6.60389C61.8253 6.24693 61.7358 5.97921 61.5569 5.7115C61.2884 5.35454 60.9305 5.17606 60.3937 4.99759L59.2305 4.72987C58.7832 4.64063 58.5148 4.55139 58.5148 4.19444C58.5148 3.92672 58.7832 3.659 59.4095 3.659C59.7674 3.659 60.1253 3.74824 60.3042 3.92672C60.4832 4.1052 60.4832 4.19444 60.5726 4.28368C60.6621 4.28368 60.7516 4.28368 60.9305 4.28368H61.5569C61.6463 4.28368 61.7358 4.28368 61.7358 4.19444C61.7358 4.1052 61.8253 4.1052 61.8253 3.92672C61.8253 3.659 61.6463 3.30205 61.3779 3.03433C60.7516 2.85585 60.0358 2.58814 59.32 2.58814ZM62.4516 2.76662H62.1832C62.0937 2.76662 62.0042 2.76662 61.9148 2.85585C61.8253 2.94509 61.8253 3.03433 61.8253 3.12357V3.48053C61.8253 3.56977 61.8253 3.659 61.9148 3.74824C62.0042 3.83748 62.0937 3.83748 62.1832 3.83748H62.4516V6.42541C62.4516 7.05008 62.6305 7.49627 62.9884 7.85323C63.2569 8.12095 63.7042 8.38866 64.42 8.38866H64.8674C64.9569 8.38866 65.0463 8.38866 65.1358 8.29942C65.2253 8.21019 65.2253 8.12095 65.2253 8.03171V7.49627C65.2253 7.40704 65.2253 7.3178 65.1358 7.22856C65.0463 7.22856 64.9569 7.13932 64.8674 7.13932H64.7779C64.5095 7.13932 64.3305 7.05008 64.1516 6.96084C63.9726 6.78236 63.8832 6.60389 63.8832 6.33617V3.83748H64.8674C64.9569 3.83748 65.0463 3.83748 65.1358 3.74824C65.2253 3.659 65.2253 3.56977 65.2253 3.48053V3.12357C65.2253 3.03433 65.2253 2.94509 65.1358 2.85585C65.0463 2.76662 64.9569 2.76662 64.8674 2.76662H63.9727V1.16032C63.9727 0.981839 63.9727 0.8926 63.8832 0.8926C63.7937 0.803361 63.7042 0.714122 63.5253 0.714122H62.899C62.72 0.714122 62.6305 0.803361 62.5411 0.8926C62.4516 0.981839 62.4516 1.07108 62.4516 1.16032V2.76662ZM65.6727 7.85323C65.6727 8.03171 65.6727 8.12095 65.7621 8.12095C65.8516 8.21019 65.9411 8.29942 66.12 8.29942H66.7463C66.9253 8.29942 67.0148 8.21019 67.1042 8.12095C67.1042 8.12095 67.1937 8.03171 67.1937 7.85323V1.16032C67.1937 0.981839 67.1937 0.8926 67.1042 0.8926C67.0148 0.803361 66.9253 0.714122 66.7463 0.714122H66.12C65.9411 0.714122 65.8516 0.803361 65.7621 0.8926C65.6727 0.981839 65.6727 1.07108 65.6727 1.16032V7.85323ZM52.4305 4.81911C52.52 4.19444 52.9674 3.74824 53.6832 3.74824C54.399 3.74824 54.9358 4.19444 54.9358 4.81911H52.4305ZM72.7411 1.78499C72.8305 1.78499 72.92 1.78499 73.0095 1.69575C73.099 1.60651 73.099 1.51727 73.099 1.42803V0.981839C73.099 0.803361 73.099 0.714122 73.0095 0.624883C72.92 0.535644 72.8305 0.535645 72.7411 0.535645C72.6516 0.535645 72.5621 0.535645 72.4727 0.535645L68.3569 0.981839C68.2674 0.981839 68.1779 1.07108 68.1779 1.07108C68.0884 1.16032 68.0884 1.16032 68.0884 1.24956V1.51727C68.0884 1.60651 68.0884 1.69575 68.1779 1.69575C68.1779 1.78499 68.2674 1.78499 68.3569 1.78499H72.7411ZM70.5042 2.58814C68.7148 2.58814 67.7305 4.01596 67.7305 5.44378C67.7305 7.05008 68.8042 8.38866 70.5042 8.38866C71.399 8.38866 72.2042 8.03171 72.7411 7.49627C72.92 7.22856 73.099 6.8716 73.099 6.69313C73.099 6.60389 73.099 6.60389 73.0095 6.51465C73.0095 6.42541 72.92 6.42541 72.8305 6.42541H72.0253C71.8463 6.42541 71.7569 6.51465 71.6674 6.60389C71.399 6.96084 71.0411 7.13932 70.5937 7.13932C69.7884 7.13932 69.3411 6.51465 69.2516 5.88998H72.8305C73.0095 5.88998 73.099 5.88998 73.1884 5.80074C73.2779 5.7115 73.2779 5.62226 73.2779 5.35454C73.2779 4.64063 73.099 4.01596 72.6516 3.48053C72.2042 2.94509 71.4884 2.58814 70.5042 2.58814ZM69.1621 4.81911C69.2516 4.19444 69.699 3.74824 70.4148 3.74824C71.1305 3.74824 71.6674 4.19444 71.6674 4.81911H69.1621Z" fill="white"/>
<path d="M72.9199 7.85282C72.9199 7.5851 73.1883 7.31738 73.4568 7.31738C73.7252 7.31738 73.9936 7.49586 73.9936 7.85282C73.9936 8.12053 73.7252 8.38825 73.4568 8.38825C73.1883 8.38825 72.9199 8.12053 72.9199 7.85282ZM73.4568 8.29901C73.7252 8.29901 73.9041 8.12053 73.9041 7.85282C73.9041 7.5851 73.7252 7.40662 73.4568 7.40662C73.1883 7.40662 73.0094 7.5851 73.0094 7.85282C73.0989 8.12053 73.2778 8.29901 73.4568 8.29901ZM73.3673 8.12053H73.2778V7.49586H73.5462C73.7252 7.49586 73.7252 7.5851 73.7252 7.67434C73.7252 7.76358 73.6357 7.85282 73.5462 7.85282L73.7252 8.12053H73.6357L73.4568 7.85282H73.3673V8.12053ZM73.4568 7.76358C73.5462 7.76358 73.6357 7.76358 73.6357 7.67434C73.6357 7.5851 73.5462 7.5851 73.5462 7.5851H73.3673V7.76358H73.4568Z" fill="white"/>
<path d="M26.393 36.4101H19.593C19.0562 36.4101 18.5194 36.2317 18.1615 35.964C18.1615 35.964 18.1615 35.964 18.072 35.8747C17.6246 35.5178 17.3562 34.9823 17.3562 34.3577V16.5991C17.3562 15.9745 17.6246 15.439 18.072 15.0821C18.072 15.0821 18.072 15.0821 18.1615 14.9928C18.5194 14.7251 19.0562 14.5466 19.593 14.5466H26.572C27.7351 14.5466 28.7194 15.5283 28.7194 16.6884C28.7194 17.8485 27.7351 18.8301 26.572 18.8301H22.0088V23.292H25.7667C26.9299 23.292 27.9141 24.2737 27.9141 25.4338C27.9141 26.5939 26.9299 27.5755 25.7667 27.5755H22.0088V31.9482H26.393C27.5562 31.9482 28.5404 32.9298 28.5404 34.0899C28.5404 35.4285 27.5562 36.4101 26.393 36.4101Z" fill="white"/>
<path d="M39.4558 15.6173C40.3506 16.4205 40.4401 17.7591 39.6348 18.6514C39.1874 19.1869 38.6506 19.3654 37.9348 19.3654C36.6822 19.3654 36.5927 18.473 35.4295 18.473C34.2664 18.473 33.4611 19.4546 33.4611 20.4362C33.4611 21.4179 33.9085 22.0425 36.2348 23.1134C38.2927 24.095 41.4243 25.6121 41.4243 29.6278C41.4243 33.6436 38.2927 36.7669 34.8032 36.7669C31.5822 36.7669 30.0611 35.0714 29.8822 34.8929C28.9874 34.0898 28.898 32.7512 29.7032 31.8588C30.1506 31.4126 30.7769 31.1449 31.3137 31.1449C32.5664 31.1449 32.7453 32.4835 34.6243 32.4835C35.7874 32.4835 37.0401 31.5018 37.0401 30.074C37.0401 29.4494 36.7716 28.8247 36.4137 28.4677C35.2506 27.3969 32.8348 27.0399 30.8664 25.0766C29.7927 24.095 29.0769 22.6672 29.0769 20.6147C29.0769 17.3129 32.0295 14.368 35.3401 14.368C37.9348 14.1895 39.3664 15.4389 39.4558 15.6173Z" fill="white"/>
<path d="M49.6572 34.3577C49.6572 35.6962 48.5835 36.7671 47.2414 36.7671C45.8993 36.7671 44.8256 35.6962 44.8256 34.3577V18.8301H42.9467C41.7835 18.8301 40.7993 17.8485 40.7993 16.6884C40.7993 15.5283 41.7835 14.5466 42.9467 14.5466H51.5362C52.6993 14.5466 53.6835 15.5283 53.6835 16.6884C53.6835 17.8485 52.6993 18.8301 51.5362 18.8301H49.6572V34.3577Z" fill="white"/>
<path d="M98.7771 36.4101H91.7981C91.2613 36.4101 90.7244 36.2317 90.3665 35.964C90.3665 35.964 90.3665 35.964 90.2771 35.8747C89.8297 35.5178 89.5613 34.9823 89.5613 34.3577V16.5991C89.5613 15.9745 89.8297 15.439 90.2771 15.0821C90.2771 15.0821 90.2771 15.0821 90.3665 14.9928C90.7244 14.7251 91.2613 14.5466 91.7981 14.5466H98.7771C99.9402 14.5466 100.924 15.5283 100.924 16.6884C100.924 17.8485 99.9402 18.8301 98.7771 18.8301H94.2139V23.292H97.9718C99.135 23.292 100.119 24.2737 100.119 25.4338C100.119 26.5939 99.135 27.5755 97.9718 27.5755H94.2139V31.9482H98.7771C99.9402 31.9482 100.924 32.9298 100.924 34.0899C101.014 35.4285 100.03 36.4101 98.7771 36.4101Z" fill="white"/>
<path d="M80.4351 18.5618C81.5982 18.5618 82.314 19.7219 83.5666 19.7219C84.7298 19.7219 85.714 18.7403 85.714 17.5802C85.714 15.8846 83.6561 14.2783 80.4351 14.2783C75.6035 14.2783 71.7561 19.3649 71.7561 25.5224C71.7561 31.6799 75.6035 36.7665 80.4351 36.7665C85.2666 36.7665 88.7561 31.6799 88.7561 25.5224C88.7561 25.1655 88.7561 24.7193 88.7561 24.3623C88.7561 23.8269 88.2193 23.2914 87.6824 23.2914H81.7772C80.614 23.2914 79.6298 24.2731 79.6298 25.4332C79.6298 26.5933 80.614 27.5749 81.7772 27.5749H84.4614C83.8351 30.2521 82.4929 32.3046 80.4351 32.3046C78.1982 32.3046 76.4982 29.092 76.4982 25.3439C76.4982 21.5959 78.1982 18.5618 80.4351 18.5618Z" fill="white"/>
<path d="M70.7714 25.4338C70.7714 31.6805 66.5661 36.6779 61.3767 36.6779C56.1872 36.6779 51.9819 31.5913 51.9819 25.4338C51.9819 19.2763 56.1872 14.1897 61.3767 14.1897C66.5661 14.1897 70.7714 19.1871 70.7714 25.4338ZM65.9398 25.4338C65.9398 21.775 63.9714 18.4732 61.3767 18.4732C58.603 18.4732 56.8135 21.6858 56.8135 25.4338C56.8135 29.1818 58.603 32.3944 61.3767 32.3944C64.0609 32.3944 65.9398 29.1818 65.9398 25.4338Z" fill="white"/>
<path d="M11.2721 35.5175L5.36685 25.5228C5.27738 25.4335 5.09843 25.4335 5.09843 25.612V34.3574C5.09843 35.6067 4.11422 36.7668 2.86159 36.7668C1.51948 36.7668 0.445801 35.7852 0.445801 34.4466V16.5096C0.445801 15.2603 1.34054 14.2787 2.59317 14.1894C3.48791 14.1894 4.2037 14.6356 4.65106 15.3495L10.7353 25.5228C10.8247 25.612 11.0037 25.612 11.0037 25.4335V11.1553C11.0037 9.90595 11.9879 8.74585 13.2405 8.74585C14.5826 8.74585 15.6563 9.72748 15.6563 11.0661V34.3574C15.6563 35.6067 14.6721 36.6776 13.33 36.6776C12.4353 36.7668 11.7195 36.2314 11.2721 35.5175Z" fill="white"/>
<path d="M112.915 35.5175L106.92 25.5228C106.831 25.4335 106.652 25.4335 106.652 25.612V34.3574C106.652 35.6067 105.668 36.7668 104.415 36.7668C103.073 36.7668 101.999 35.7852 101.999 34.4466V16.5096C101.999 15.2603 102.894 14.2787 104.147 14.1894C105.041 14.1894 105.757 14.6356 106.205 15.3495L112.289 25.5228C112.378 25.612 112.557 25.612 112.557 25.4335V11.1553C112.557 9.90595 113.541 8.74585 114.794 8.74585C116.136 8.74585 117.21 9.72748 117.21 11.0661V34.3574C117.21 35.6067 116.226 36.6776 114.883 36.6776C114.078 36.7668 113.362 36.2314 112.915 35.5175Z" fill="white"/>
<path d="M122.489 33.7326C122.489 34.4465 121.952 35.0712 121.147 35.0712C120.431 35.0712 119.804 34.4465 119.804 33.7326C119.804 33.0187 120.431 32.394 121.147 32.394C121.952 32.394 122.489 33.0187 122.489 33.7326ZM121.147 34.7143C121.683 34.7143 122.131 34.2681 122.131 33.7326C122.131 33.1972 121.683 32.751 121.147 32.751C120.61 32.751 120.162 33.1972 120.162 33.7326C120.162 34.2681 120.61 34.7143 121.147 34.7143ZM120.61 34.2681V33.108C120.61 33.0187 120.699 32.9295 120.789 32.9295H121.147C121.415 32.9295 121.773 32.9295 121.773 33.3757C121.773 33.6434 121.683 33.7326 121.415 33.7326L121.683 34.1788V34.2681C121.683 34.3573 121.594 34.3573 121.504 34.3573C121.415 34.3573 121.326 34.2681 121.326 34.1788L121.147 33.8219H121.057V34.2681C121.057 34.3573 121.057 34.4465 120.878 34.4465C120.699 34.4465 120.61 34.4465 120.61 34.2681ZM120.968 33.6434H121.236C121.415 33.6434 121.415 33.6434 121.415 33.4649C121.415 33.3757 121.326 33.2864 121.236 33.2864H120.968V33.6434Z" fill="white"/>
<path d="M122.489 33.7326C122.489 34.4465 121.952 35.0712 121.147 35.0712C120.431 35.0712 119.804 34.4465 119.804 33.7326C119.804 33.0187 120.431 32.394 121.147 32.394C121.952 32.394 122.489 33.0187 122.489 33.7326ZM121.147 34.7143C121.683 34.7143 122.131 34.2681 122.131 33.7326C122.131 33.1972 121.683 32.751 121.147 32.751C120.61 32.751 120.162 33.1972 120.162 33.7326C120.162 34.2681 120.61 34.7143 121.147 34.7143ZM120.61 34.2681V33.108C120.61 33.0187 120.699 32.9295 120.789 32.9295H121.147C121.415 32.9295 121.773 32.9295 121.773 33.3757C121.773 33.6434 121.683 33.7326 121.415 33.7326L121.683 34.1788V34.2681C121.683 34.3573 121.594 34.3573 121.504 34.3573C121.415 34.3573 121.326 34.2681 121.326 34.1788L121.147 33.8219H121.057V34.2681C121.057 34.3573 121.057 34.4465 120.878 34.4465C120.699 34.4465 120.61 34.4465 120.61 34.2681ZM120.968 33.6434H121.236C121.415 33.6434 121.415 33.6434 121.415 33.4649C121.415 33.3757 121.326 33.2864 121.236 33.2864H120.968V33.6434Z" fill="white"/>
<path d="M134.299 25.4337C134.299 26.7723 133.762 27.9324 132.599 28.6463C134.12 29.3602 135.104 30.6988 135.104 32.3943C135.104 34.893 132.778 37.0348 129.825 37.0348C126.694 37.0348 124.815 34.8038 124.815 33.1082C124.815 32.3051 125.709 31.6804 126.425 31.6804C127.857 31.6804 127.499 34.0899 129.915 34.0899C130.988 34.0899 131.883 33.2867 131.883 32.1266C131.883 29.1817 128.304 31.3235 128.304 28.914C128.304 26.6831 131.257 28.2001 131.257 25.8799C131.257 25.0767 130.72 24.4521 129.736 24.4521C127.767 24.4521 128.036 26.5046 126.604 26.5046C125.709 26.5046 125.262 25.7014 125.262 24.9875C125.262 23.3812 127.499 21.5964 129.825 21.5964C132.867 21.6857 134.299 23.8274 134.299 25.4337Z" fill="white"/>
</g>
<defs>
<clipPath id="clip0_1826_19">
<rect width="136" height="68" fill="white"/>
</clipPath>
</defs>
</svg>
